<?xml version="1.0" encoding="UTF-8"?>
<svg xmlns="http://www.w3.org/2000/svg" width="77" height="77" viewBox="0 0 77 77">
  <g id="Gruppe_170" data-name="Gruppe 170" transform="translate(-762 -1727)">
    <circle id="Ellipse_4" data-name="Ellipse 4" cx="38.5" cy="38.5" r="38.5" transform="translate(762 1727)" fill="#0069ff"></circle>
    <g id="team-2" transform="translate(774.65 1746.25)">
      <g id="Gruppe_38" data-name="Gruppe 38" transform="translate(39.664 16.197)">
        <g id="Gruppe_37" data-name="Gruppe 37" transform="translate(0 0)">
          <path id="Pfad_16" data-name="Pfad 16" d="M398.706,229.339a14.778,14.778,0,0,0-5.2-.89.757.757,0,1,0,0,1.515,13.078,13.078,0,0,1,4.52.73.757.757,0,0,0,.677-1.355Z" transform="translate(-392.751 -228.449)" fill="#fff"></path>
        </g>
      </g>
      <g id="Gruppe_40" data-name="Gruppe 40" transform="translate(0 0)">
        <g id="Gruppe_39" data-name="Gruppe 39">
          <path id="Pfad_17" data-name="Pfad 17" d="M49.395,95.936l-3.128-.894a.318.318,0,0,1-.229-.3V93.694a5.693,5.693,0,0,0,.724-.594,5.572,5.572,0,0,0,1.705-4.031V87.629l.3-.6a4.832,4.832,0,0,0,.507-2.15v-3.9a.757.757,0,0,0-.757-.757H41.231a4.812,4.812,0,0,0-4.807,4.807v.045a4.017,4.017,0,0,0,.422,1.787l.388.776v1.237a5.91,5.91,0,0,0,2.43,4.778v1.094c0,.169,0,.239-.625.417l-1.526.436L33.1,93.986a.757.757,0,0,0-.206-.58l-1.411-1.482V89.436c.149-.123.3-.249.439-.383a8.89,8.89,0,0,0,2.8-6.462V80.6a8.755,8.755,0,0,0,.81-3.682v-8.1a.757.757,0,0,0-.757-.757H23.433A7.244,7.244,0,0,0,16.2,75.3v1.62a8.755,8.755,0,0,0,.81,3.682v1.71a9.255,9.255,0,0,0,3.239,7.064v2.547l-1.411,1.482a.757.757,0,0,0-.206.58l-4.66,1.694a3.972,3.972,0,0,0-.936.491l-.732-.366a5.785,5.785,0,0,0,2.9-2.348.757.757,0,0,0,0-.677,13.456,13.456,0,0,1-.665-4.7c-.018-.535-.034-1.041-.066-1.492a6.589,6.589,0,0,0-6.424-6.373,6.588,6.588,0,0,0-6.424,6.373c-.032.451-.049.956-.066,1.492a13.456,13.456,0,0,1-.665,4.7.757.757,0,0,0,0,.677,5.784,5.784,0,0,0,2.9,2.346L1.762,96.82A3.17,3.17,0,0,0,0,99.671v5.6a.757.757,0,1,0,1.515,0v-5.6a1.663,1.663,0,0,1,.924-1.5L4.97,96.91l.88.837a3.185,3.185,0,0,0,4.391,0l.88-.837.825.413a3.988,3.988,0,0,0-.609,2.115v5.83a.757.757,0,0,0,1.515,0v-5.83A2.49,2.49,0,0,1,14.486,97.1L19.4,95.318l2.045,3.068a1.562,1.562,0,0,0,1.15.69q.078.008.156.008a1.561,1.561,0,0,0,1.107-.459l1.248-1.248v7.89a.757.757,0,0,0,1.515,0v-7.89l1.248,1.248a1.56,1.56,0,0,0,1.107.459q.078,0,.156-.008a1.562,1.562,0,0,0,1.15-.69l2.045-3.068L37.239,97.1a2.49,2.49,0,0,1,1.634,2.333v5.83a.757.757,0,0,0,1.515,0v-5.83a4,4,0,0,0-1.12-2.771l.187-.053a4.154,4.154,0,0,0,.7-.254l1.934,1.934v6.975a.757.757,0,0,0,1.515,0V98.292l1.92-1.92a1.8,1.8,0,0,0,.322.128l3.128.894A1.679,1.679,0,0,1,50.192,99v6.266a.757.757,0,0,0,1.515,0V99A3.2,3.2,0,0,0,49.395,95.936ZM4.859,94.6a5.445,5.445,0,0,1-2.431-1.561,8.349,8.349,0,0,0,.432-1.814,5.648,5.648,0,0,0,2,2.466ZM9.2,96.648a1.671,1.671,0,0,1-2.3,0l-.7-.669a1.567,1.567,0,0,0,.184-.74v-.807a5.632,5.632,0,0,0,3.344,0v.807a1.567,1.567,0,0,0,.184.74ZM8.046,93.171a4.106,4.106,0,0,1-4.1-4.1.753.753,0,0,0-.882-.746c0-.065,0-.13.007-.195.017-.521.033-1.013.063-1.435a5.623,5.623,0,0,1,1.531-3.531,4.706,4.706,0,0,1,6.764,0,5.623,5.623,0,0,1,1.531,3.531c.03.422.046.914.063,1.434l0,.135A6.806,6.806,0,0,0,9.287,85.53a9.507,9.507,0,0,0-2.881-.456.758.758,0,0,0-.524.231L4.515,86.722a.757.757,0,0,0,1.09,1.051l1.137-1.179c.979.048,4.13.414,5.355,3.112A4.092,4.092,0,0,1,8.046,93.171Zm3.187,1.43v-.9a5.6,5.6,0,0,0,2-2.469,8.338,8.338,0,0,0,.431,1.81A5.471,5.471,0,0,1,11.233,94.6Zm7.289-12.288V80.434a.758.758,0,0,0-.075-.329,7.265,7.265,0,0,1-.734-3.183V75.3a5.728,5.728,0,0,1,5.721-5.721H34.014v7.341a7.265,7.265,0,0,1-.734,3.183.758.758,0,0,0-.075.329v2.157a7.271,7.271,0,0,1-2.322,5.357,7.537,7.537,0,0,1-.581.492l-.013.009a7.283,7.283,0,0,1-4.915,1.466A7.5,7.5,0,0,1,18.522,82.313Zm4.265,15.24a.048.048,0,0,1-.042.015.048.048,0,0,1-.038-.023L20.35,94.012l.758-.8,3.573,2.443Zm3.076-2.923-4.1-2.8V90.413a8.528,8.528,0,0,0,3.514,1.014q.3.019.6.019a8.773,8.773,0,0,0,4.094-1v1.384Zm3.157,2.915a.048.048,0,0,1-.038.023.047.047,0,0,1-.042-.015l-1.9-1.9,3.573-2.443.758.8Zm13.831-.639-1.719-1.719a2.078,2.078,0,0,0,.047-.45v-.32a5.311,5.311,0,0,0,1.5.265l.174,0a5.626,5.626,0,0,0,1.67-.253v.3a1.811,1.811,0,0,0,.055.441Zm2.856-4.893a4.071,4.071,0,0,1-2.983,1.156,4.24,4.24,0,0,1-3.975-4.3V87.45a.757.757,0,0,0-.08-.339l-.468-.936a2.5,2.5,0,0,1-.262-1.11V85.02a3.3,3.3,0,0,1,3.292-3.292h6.531v3.146a3.309,3.309,0,0,1-.347,1.472l-.382.765a.757.757,0,0,0-.08.339v1.62A4.069,4.069,0,0,1,45.707,92.013Z" transform="translate(0 -68.066)" fill="#fff"></path>
        </g>
      </g>
      <g id="Gruppe_42" data-name="Gruppe 42" transform="translate(46.952 31.584)">
        <g id="Gruppe_41" data-name="Gruppe 41">
          <path id="Pfad_18" data-name="Pfad 18" d="M465.68,380.814a.757.757,0,0,0-.757.757v4.859a.757.757,0,0,0,1.515,0v-4.859A.758.758,0,0,0,465.68,380.814Z" transform="translate(-464.923 -380.814)" fill="#fff"></path>
        </g>
      </g>
      <g id="Gruppe_44" data-name="Gruppe 44" transform="translate(3.239 32.585)">
        <g id="Gruppe_43" data-name="Gruppe 43">
          <path id="Pfad_19" data-name="Pfad 19" d="M32.834,390.728a.757.757,0,0,0-.757.757v3.858a.757.757,0,0,0,1.515,0v-3.858A.757.757,0,0,0,32.834,390.728Z" transform="translate(-32.077 -390.728)" fill="#fff"></path>
        </g>
      </g>
      <g id="Gruppe_46" data-name="Gruppe 46" transform="translate(19.436 6.881)">
        <g id="Gruppe_45" data-name="Gruppe 45">
          <path id="Pfad_20" data-name="Pfad 20" d="M205.091,138.452c-2.865-2.865-8.858-2.317-11.3-1.949a1.555,1.555,0,0,0-1.329,1.549V139.8a.757.757,0,0,0,1.515,0v-1.745a.05.05,0,0,1,.04-.051,23.929,23.929,0,0,1,4.921-.24c2.362.157,4.073.75,5.085,1.762a.757.757,0,1,0,1.071-1.071Z" transform="translate(-192.46 -136.203)" fill="#fff"></path>
        </g>
      </g>
      <g id="Gruppe_48" data-name="Gruppe 48" transform="translate(16.197 33.204)">
        <g id="Gruppe_47" data-name="Gruppe 47" transform="translate(0 0)">
          <path id="Pfad_21" data-name="Pfad 21" d="M161.141,396.853a.757.757,0,0,0-.757.757v3.239a.757.757,0,0,0,1.515,0V397.61A.757.757,0,0,0,161.141,396.853Z" transform="translate(-160.384 -396.853)" fill="#fff"></path>
        </g>
      </g>
      <g id="Gruppe_50" data-name="Gruppe 50" transform="translate(34.014 33.204)">
        <g id="Gruppe_49" data-name="Gruppe 49" transform="translate(0 0)">
          <path id="Pfad_22" data-name="Pfad 22" d="M337.563,396.853a.757.757,0,0,0-.757.757v3.239a.757.757,0,0,0,1.515,0V397.61A.757.757,0,0,0,337.563,396.853Z" transform="translate(-336.806 -396.853)" fill="#fff"></path>
        </g>
      </g>
    </g>
  </g>
</svg>
