<?xml version="1.0" encoding="UTF-8"?>
<svg xmlns="http://www.w3.org/2000/svg" xmlns:xlink="http://www.w3.org/1999/xlink" xmlns:svgjs="http://svgjs.com/svgjs" version="1.1" width="512" height="512" x="0" y="0" viewBox="0 0 511.985 511.985" style="enable-background:new 0 0 512 512" xml:space="preserve" class="">
  <circle r="255.9925" cx="255.9925" cy="255.9925" fill="#0069ff" shape="circle" transform="matrix(1,0,0,1,0,0)"></circle>
  <g transform="matrix(0.7,0,0,0.7,76.79759759902956,76.79763336181642)">
    <path d="M500.088 83.681c-15.841-15.862-41.564-15.852-57.426 0L184.205 342.148 69.332 227.276c-15.862-15.862-41.574-15.862-57.436 0-15.862 15.862-15.862 41.574 0 57.436l143.585 143.585c7.926 7.926 18.319 11.899 28.713 11.899 10.394 0 20.797-3.963 28.723-11.899l287.171-287.181c15.862-15.851 15.862-41.574 0-57.435z" fill="#ffffff" data-original="#000000" class=""></path>
  </g>
</svg>
