<svg id="Group_3" data-name="Group 3" xmlns="http://www.w3.org/2000/svg" xmlns:xlink="http://www.w3.org/1999/xlink" width="17" height="17" viewBox="0 0 17 17">
  <defs>
    <clipPath id="clip-path">
      <path id="Clip_2" data-name="Clip 2" d="M0,0H17V17H0Z" fill="none"/>
    </clipPath>
  </defs>
  <path id="Clip_2-2" data-name="Clip 2" d="M0,0H17V17H0Z" fill="none"/>
  <g id="Group_3-2" data-name="Group 3" clip-path="url(#clip-path)">
    <path id="Fill_1" data-name="Fill 1" d="M8.5,17A8.5,8.5,0,0,1,2.489,2.489,8.5,8.5,0,0,1,14.511,14.511,8.448,8.448,0,0,1,8.5,17Zm0-15.672A7.172,7.172,0,1,0,15.672,8.5,7.179,7.179,0,0,0,8.5,1.328Zm0,10.634h0L3.909,7.371l.939-.939L8.5,10.085l3.653-3.652.939.939L8.5,11.962Z" fill="#444"/>
  </g>
</svg>
