<svg id="Group_14" data-name="Group 14" xmlns="http://www.w3.org/2000/svg" xmlns:xlink="http://www.w3.org/1999/xlink" width="64" height="64.001" viewBox="0 0 64 64.001">
  <defs>
    <clipPath id="clip-path">
      <path id="Clip_4" data-name="Clip 4" d="M0,64H64V0H0Z" fill="none"/>
    </clipPath>
  </defs>
  <path id="Fill_1" data-name="Fill 1" d="M13.059,50H11.066V42.8a26.762,26.762,0,0,1-4.087-.6,22.708,22.708,0,0,1-5.683-2L0,39.6V36.5a5.047,5.047,0,0,1,.8-2.7A5.713,5.713,0,0,1,2.791,32l5.783-2.9a1.654,1.654,0,0,0,.4-1.1v-.7A7.961,7.961,0,0,1,6.979,22V20a5.622,5.622,0,0,1,1.794-4.2A5.589,5.589,0,0,1,12.959,14a5.59,5.59,0,0,1,4.188,1.8A5.622,5.622,0,0,1,18.941,20v2a7.745,7.745,0,0,1-1.993,5.3V28a1.653,1.653,0,0,0,.4,1.1l3.091,1.5,5.084-2.5a1.422,1.422,0,0,0,.4-1.1V23.5a10.548,10.548,0,0,1-2.991-6.8,1.388,1.388,0,0,0-.2-.152,1.4,1.4,0,0,1-.2-.149,1.98,1.98,0,0,1-.6-1.4V10a9.973,9.973,0,0,1,2.891-7.1A9.755,9.755,0,0,1,28.062.737,10.12,10.12,0,0,1,31.9,0a9.887,9.887,0,0,1,9.968,10v5a2.413,2.413,0,0,1-.6,1.5,1.4,1.4,0,0,1-.4.3,10.955,10.955,0,0,1-2.991,6.8V27a1.422,1.422,0,0,0,.4,1.1l5.084,2.5,3.09-1.5a1.654,1.654,0,0,0,.4-1.1v-.7A7.961,7.961,0,0,1,44.86,22V20a5.622,5.622,0,0,1,1.795-4.2,5.769,5.769,0,0,1,8.374,0A5.622,5.622,0,0,1,56.822,20v2a7.745,7.745,0,0,1-1.993,5.3V28a1.653,1.653,0,0,0,.4,1.1L61.009,32A6.059,6.059,0,0,1,63.3,34a5.9,5.9,0,0,1,.7,2.6v3.1l-1.3.6a34.5,34.5,0,0,1-5.682,2,26.668,26.668,0,0,1-4.088.6V50H50.941V41c0-4.317-2.993-5.852-7.137-7.977l-.241-.123h-.2v-.1l-4.585-2.3a7.051,7.051,0,0,1-2.418,3.95A6.921,6.921,0,0,1,32,36a7.036,7.036,0,0,1-6.779-5.5l-4.586,2.3v.1h-.2l-.241.123c-4.143,2.124-7.137,3.659-7.137,7.977v9ZM48.748,28.6h0a3.122,3.122,0,0,1-1.495,2.3l-1.695.9c3.835,1.974,7.277,4.164,7.277,9.2a22.632,22.632,0,0,0,3.589-.6,24.977,24.977,0,0,0,5.184-1.9l.2-.1V36.5a2.91,2.91,0,0,0-.4-1.6,2.508,2.508,0,0,0-1.2-1.1L54.43,30.9a3.338,3.338,0,0,1-1.5-2.3,4.875,4.875,0,0,1-2.093.4,4.586,4.586,0,0,1-2.093-.4Zm-37.882,0h0a3.122,3.122,0,0,1-1.495,2.3L3.589,33.8a2.515,2.515,0,0,0-1.2,1.1,4.235,4.235,0,0,0-.4,1.6v1.9h.2a22.985,22.985,0,0,0,5.184,1.9,20.645,20.645,0,0,0,3.588.6c0-5.116,3.6-7.3,7.277-9.1l-1.695-.9a3.334,3.334,0,0,1-1.495-2.3,4.882,4.882,0,0,1-2.094.4,4.586,4.586,0,0,1-2.093-.4ZM27.913,25v2a3.554,3.554,0,0,1-1,2.5,5.01,5.01,0,0,0,9.968,0,3.552,3.552,0,0,1-1-2.5V25a8.451,8.451,0,0,1-7.975,0Zm22.928-9a3.937,3.937,0,0,0-2.791,1.2,3.65,3.65,0,0,0-1.2,2.8v2c0,1.933,1.082,5,3.987,5s3.988-3.067,3.988-5V20a3.963,3.963,0,0,0-1.2-2.8A3.779,3.779,0,0,0,50.841,16ZM12.959,16a3.937,3.937,0,0,0-2.791,1.2,3.65,3.65,0,0,0-1.2,2.8v2c0,1.933,1.082,5,3.987,5s3.988-3.067,3.988-5V20a3.963,3.963,0,0,0-1.2-2.8A3.777,3.777,0,0,0,12.959,16Zm12.96-5a2.047,2.047,0,0,0-1.993,2v2a.945.945,0,0,1,1,1c0,3.093,1.895,8,6.979,8s6.978-4.907,6.978-8a.945.945,0,0,1,1-1V13a2.049,2.049,0,0,0-1.993-2h-1a2.877,2.877,0,0,1-2.093-.9l-.3-.3-.9.9a.9.9,0,0,1-.7.3Zm8.951-4a.932.932,0,0,1,.419.1.881.881,0,0,1,.6.9,1.024,1.024,0,0,0,1,1h1a4.526,4.526,0,0,1,1.993.5,7.8,7.8,0,0,0-2.293-5.2A8.288,8.288,0,0,0,31.9,2a7.84,7.84,0,0,0-5.683,2.3,8.036,8.036,0,0,0-2.292,5.2A4.528,4.528,0,0,1,25.919,9H32.5l1.695-1.7A.955.955,0,0,1,34.871,7Z" transform="translate(0 14)" fill="#fff"/>
  <path id="Clip_4-2" data-name="Clip 4" d="M0,64H64V0H0Z" fill="none"/>
  <g id="Group_14-2" data-name="Group 14" clip-path="url(#clip-path)">
    <path id="Fill_3" data-name="Fill 3" d="M0,6H2V0H0Z" transform="translate(19 58)" fill="#fff"/>
    <path id="Fill_5" data-name="Fill 5" d="M0,6H2V0H0Z" transform="translate(43 58)" fill="#fff"/>
    <path id="Fill_6" data-name="Fill 6" d="M0,2H2V0H0Z" transform="translate(46 16)" fill="#fff"/>
    <path id="Fill_7" data-name="Fill 7" d="M0,2H2V0H0Z" transform="translate(50 16)" fill="#fff"/>
    <path id="Fill_8" data-name="Fill 8" d="M0,2H2V0H0Z" transform="translate(54 16)" fill="#fff"/>
    <path id="Fill_9" data-name="Fill 9" d="M2,2H24V14H21v2.6l-2.3-2.3A.908.908,0,0,0,18,14H6v2H17.6l3.7,3.7a.908.908,0,0,0,.7.3.6.6,0,0,0,.4-.1A.961.961,0,0,0,23,19V16h3V0H0V5H2Z" transform="translate(38 9)" fill="#fff"/>
    <path id="Fill_10" data-name="Fill 10" d="M0,2H20V0H0Z" transform="translate(6 6)" fill="#fff"/>
    <path id="Fill_11" data-name="Fill 11" d="M0,2H20V0H0Z" transform="translate(6 10)" fill="#fff"/>
    <path id="Fill_12" data-name="Fill 12" d="M0,2H14V0H0Z" transform="translate(6 14)" fill="#fff"/>
    <path id="Fill_13" data-name="Fill 13" d="M3,25a.875.875,0,0,0,.6.9A.6.6,0,0,0,4,26a.908.908,0,0,0,.7-.3L8.4,22H20V20H8a.908.908,0,0,0-.7.3L5,22.6V20H2V2H30V12h2V0H0V22H3Z" fill="#fff"/>
  </g>
</svg>
