<svg id="Group_3" data-name="Group 3" xmlns="http://www.w3.org/2000/svg" xmlns:xlink="http://www.w3.org/1999/xlink" width="24" height="12" viewBox="0 0 24 12">
  <defs>
    <clipPath id="clip-path">
      <path id="Clip_2" data-name="Clip 2" d="M0,0H24V12H0Z" fill="none"/>
    </clipPath>
  </defs>
  <path id="Clip_2-2" data-name="Clip 2" d="M0,0H24V12H0Z" fill="none"/>
  <g id="Group_3-2" data-name="Group 3" clip-path="url(#clip-path)">
    <path id="Fill_1" data-name="Fill 1" d="M23.841,5.617h0L18.387.19a.547.547,0,0,0-.769-.059.541.541,0,0,0,0,.824l4.522,4.5H.545a.543.543,0,1,0,0,1.086H22.14l-4.522,4.5a.541.541,0,0,0-.059.765.547.547,0,0,0,.829,0l5.454-5.428a.541.541,0,0,0,0-.765" fill="#444"/>
  </g>
</svg>
