<?xml version="1.0" encoding="utf-8"?>
<!-- Generator: Adobe Illustrator 24.1.1, SVG Export Plug-In . SVG Version: 6.00 Build 0)  -->
<svg version="1.1" id="Ebene_1" xmlns="http://www.w3.org/2000/svg" xmlns:xlink="http://www.w3.org/1999/xlink" x="0px" y="0px"
	 viewBox="0 0 666 155" style="enable-background:new 0 0 666 155;" xml:space="preserve">
<style type="text/css">
	.st0{fill-rule:evenodd;clip-rule:evenodd;fill:#0E4A7D;}
	.st1{filter:url(#Adobe_OpacityMaskFilter);}
	.st2{fill-rule:evenodd;clip-rule:evenodd;fill:#FFFFFF;}
	.st3{mask:url(#d_1_);fill-rule:evenodd;clip-rule:evenodd;fill:#0E4A7D;}
	.st4{filter:url(#Adobe_OpacityMaskFilter_1_);}
	.st5{mask:url(#c_1_);fill-rule:evenodd;clip-rule:evenodd;fill:#0E4A7D;}
</style>
<desc>Created with Sketch.</desc>
<g>
	<g transform="translate(-627 -251)">
		<g transform="translate(627 251)">
			<path class="st0" d="M658.5,80.9c0.3,0.2,0.7,0.4,1,0.6c2.3-1.5,3-5.3,6.5-5.9c0.1-0.4,0.2-0.8,0.4-1.2
				c-4.3-5.4-12-7.2-16.5-11.5c-0.1-1.6-0.1-3.1-0.2-4.7c-5.8-0.7-8.2-5.4-13.2-8.6c0.1-0.6,0.3-1.2,0.4-1.8
				c0.9-1.8,1.9-2.1,2.8-4.1c-1.9-1.2-3.7-2.3-5.6-3.5c-0.8-2.4-1-6.7-1.1-10.5c-25.4-15.3-57.4-13.7-87.4-21.5
				c-10.3-0.7-20.6-1.4-30.8-2.1c-5.8-1.5-22.4-2.5-27.2,0.8c-2.7,1.8-7.9,4.5-12.8,3c-19.5-5.7-37-0.9-55-1.9
				c-8.4,0.6-16.8,1.3-25.2,1.9c-9.6-0.3-19.2-0.6-28.8-0.9c-7.4,0.4-14.8,0.9-22.2,1.3c-10.2-1.3-21.4,1.5-33.3,0.8
				c-6.9,0.2-13.9,0.5-20.8,0.7c-13.1,1.1-26.2,2.1-39.4,3.2c-18.1-3-46.6-0.2-69.5,0c-6.4,0.4-12.8,0.9-19.2,1.3
				c-22.5,0-45,0-67.5-0.1c-8.8,1-19-3.9-26.8-1.5c-1,2.7-7.7,1.8-10.1,1.8c-8.3,0.1-13.1,4.4-21.3,4.8l0-0.6
				c2.9-3.9,7.6-5.7,11.9-6.5c0.1-0.4,0.2-0.8,0.4-1.2c-7.3-3.3-13.4,4.3-19.7-3.3c0.5,3.9,4.5,9.5,6.4,11c0.2,0.6,0.4,1.2,0.6,1.7
				C29.7,24.4,23.8,22,19,29.9c0.1,0.8,0.2,1.6,0.3,2.3c0,0.4,0,0.8,0,1.2c1.3-0.4,2-2.2,4.1-2.9c0.1,0.4,0.2,0.8,0.3,1.2
				c-0.5,1.6-1,3.1-1.5,4.7c0.4,0.6,0.9,1.2,1.3,1.7c-1.1,0.2-2.2,0.4-3.4,0.6c-0.4,0.8-0.7,1.6-1.1,2.3c0,0.2,0,0.4,0,0.6
				c2.9,0.4,5.8,0.7,8.7,1.1c0.9,1,1.7,1.9,2.6,2.9c-3.5,5.3-9.1,1-12.9,5.3c0,0.2,0,0.4,0,0.6c2.5-0.2,4.9-0.4,7.4-0.6
				c-1.9,5.6-6.3,8.6-6.7,13.5c-1.6-0.2-3.1-0.4-4.7-0.5c-0.1,0.4-0.2,0.8-0.4,1.2c2.1,3.2,9.5,6.6,10.1,11.6
				c6.8,2.8,13.8,2.8,21.4,4.5c0.6,1.7,1.2,3.5,1.9,5.2c-1.2-1-2.4-1.9-3.6-2.9c-0.1,0.2-0.2,0.4-0.4,0.6c0.3,1.4,0.6,2.7,0.9,4.1
				c-3.7-0.2-4.4-2.2-7.6-2.9c0,0.4,0,0.8,0,1.2c-0.2,0.6-0.5,1.2-0.7,1.8c1.5,1.3,1.7,3.1,3.2,5.2c-0.5,0.8-17.5,0.7-20.8,0.7
				c0.3,1.9,1.8,9.7,2.7,11.1c2.5-0.2,4.9-0.4,7.4-0.6c7.6,2.6,16.2,3.1,22.6,8c-1.8,0.4-3.6,0.8-5.4,1.2c5,3,11.9-2.9,14.6,5.1
				c0,0.2,0,0.4,0,0.6c-4.7,0.1-5.9-1.3-9-1.7l0,0.6c4,4.8,13.6-0.5,17.4,1.6c10.3,5.6,24.8,4.1,38.5,3.8c0,0.2,0,0.4,0,0.6
				c-3.4,0.4-6.7,0.8-10.1,1.2c2.5,5.3,12.6-0.1,16.1,1c10.6,1.1,21.2,2.2,31.8,3.3c5.5,0,11-0.1,16.5-0.1
				c5.4,1.8,11.4,1.3,14.8-1.3c6.6-0.1,13.2-0.1,19.8-0.2c3.1-0.2,6.3-0.4,9.4-0.7c13.7,4.8,33.3-2.1,50,1.9
				c9.8,2.4,26.1-4,33.2,1.5c1-3.3,8,0,11.4-0.7c9.9-1.9,21.7,4.6,32-2.6c-0.1,0.6-0.3,1.2-0.4,1.8c2.2,1.2,15.5-5,20.2-1.3
				c-0.4,0-0.9,0-1.3,0c0,0,26.8,1.4,27.8,0.9c2.8-1.2,9.6-2.5,12-0.8c2.1-0.2,4.1-0.4,6.2-0.6c-1.8,1.5,2.6,0.1,3,0
				c6.7-2.3,31,6.5,38.9,1.4c6.4-4.1,13.4,4.9,19.8-0.7c0.2,1.5,0,0.3-0.4,1.8c14.1-0.7,24.2-3.2,42.2,5.5c2.3-1.4,9.7,1.1,10.7,2.2
				c1.8-2.3,1.4-2.5,4.4-2.4c0,0.2,0,0.4,0,0.6c-0.5,0.4-0.9,0.8-1.4,1.2c1.8-0.8,2.3-1.7,4.7-1.8c0,0.2,0,0.4,0,0.6
				c-0.5,0.4-0.9,0.8-1.4,1.2c3.2-1.2,9.8-5.3,13.8-1.9c-0.5,0.2-0.9,0.4-1.4,0.6c2,1,1.8-2.1,4.4-1.2c3.3,1.1,7.1,1.6,10.9,1.9
				c0.3,0.1,0.5,0.2,0.8,0.3c0-0.1,0-0.2,0-0.3c3.8,0.2,7.7,0.2,11.1,0.2c-0.6,0.2-1.1,0.4-1.7,0.6c1.7-0.2,3.4-0.4,5.1-0.6
				c11.3,1.5,22.5,2.9,33.8,4.4c-0.1-1.4-0.2-2.7-0.2-4.1c7.5,1.5,14.9,3,22.4,4.5c3.5-0.2,6.9-0.4,10.4-0.7c4.5,1.7,8.8,5.1,13.7,4
				c0.5-3.5,0.2-4.1-1.2-5.8c0.1-0.6,0.3-1.2,0.4-1.8c0.8-2.1,2.4-3.2,3.5-4.7c0-0.2,0-0.4,0-0.6c-1.1-0.8-2.2-1.5-3.3-2.3
				c-0.2-0.6-0.4-1.2-0.6-1.7c0.1-0.4,0.2-0.8,0.4-1.2c2.2-0.9,7.3,0.6,9.4-0.7c1.8-1.1,2.2-3.4,5.5-3.5c0.5-5.6,3.1-10.6,7-11.7
				c0.2-0.6,0.5-1.2,0.7-1.8c-10.6,0-14.6-2.7-21.6-8.6c-0.1,0.4-0.2,0.8-0.4,1.2c-0.2,0.4-0.5,0.8-0.7,1.2c0.7,0.6,1.3,1.2,2,1.7
				c0,0.2,0,0.4,0,0.6c-8.1,2-22-6.7-30.3-9.1c-0.1-0.4-0.2-0.8-0.3-1.2c1.3-0.2,2.7-0.4,4-0.6c0-0.4,0-0.8,0-1.2
				c-2.2-0.2-8.6,0.4-6.9-4.6c1.6-4.8,23.7-5,32.3-2.6c0,0.2,0,0.4,0,0.6c-3.4,0-6.7,0.1-10.1,0.1c3,4.8,13.8-0.9,15.8-0.7
				c-0.6-1.5-0.3-1.2-1.6-1.7c0.4-0.8,0.7-1.6,1.1-2.3C649.8,82,653,79.9,658.5,80.9"/>
			<path class="st0" d="M390.2,128.6c0,0-0.1,0-0.1-0.1c-0.3,0-0.6,0.1-0.9,0.1C389.5,128.6,389.9,128.6,390.2,128.6"/>
			<path class="st0" d="M53.8,12.3c-0.2,0-0.5,0-0.7,0c-0.1,0.3-0.2,0.6-0.4,0.9C53.8,12.7,53.2,13.3,53.8,12.3"/>
			<path class="st0" d="M17.8,18.9c0.8-1,0.8,0,0.4-1.5c-0.5,0.2-0.9,0.3-1.4,0.5c-0.1,0.3-0.2,0.6-0.4,1
				C17.7,19.6,16.7,19.6,17.8,18.9"/>
			<path class="st0" d="M18.9,22.7c0.1-0.4,0.3-0.8,0.4-1.1c-0.4,0-0.7,0-1.1,0c-1,1.1-1.3,1-2.2,1.1c-0.3,0.4-0.5,0.8-0.8,1.1
				c0.4,0.2,0.7,0.4,1.1,0.6C17.2,23.8,18,23.2,18.9,22.7"/>
			<path class="st0" d="M11.4,44.1c2.1-1.5,3.2-2.7,5.3-4.5c0.2,0,0.4,0,0.6,0c-1.8-0.2-3.6-0.3-5.5-0.5c-1,1.3-1.1,1.2-1.7,3.3
				c0.1,0.4,0.2,0.7,0.3,1.1C10.8,43.8,11.1,44,11.4,44.1"/>
			<path class="st0" d="M18.9,39.5c0.5-0.3,1-0.6,1.5-0.9c-0.7,0-1.3,0-2,0C18.6,38.9,18.7,39.2,18.9,39.5"/>
			<path class="st0" d="M6.3,41.4C6,41.2,5.7,41,5.4,40.8c-0.4,0.6-0.8,1.3-1.2,1.9c0.6,0,1.2,0,1.7,0C6,42.3,6.1,41.9,6.3,41.4"/>
			<path class="st0" d="M13.8,50.3c-0.3-1-0.6-2-0.8-3c0.1,0.7,0.2,1.3,0.3,2c0.1,0.3,0.2,0.7,0.3,1C13.6,50.3,13.7,50.3,13.8,50.3"
				/>
			<path class="st0" d="M14.7,51.4c0,0.3,0,0.6,0,1c1-0.7,0.3,0,1-0.9C15.4,51.4,15.1,51.4,14.7,51.4"/>
			<path class="st0" d="M16.7,52.4c0.2,0.3,0.4,0.7,0.6,1c0.1,0,0.2,0,0.3,0C17.1,52.4,17.7,53.1,16.7,52.4"/>
			<path class="st0" d="M15.2,58.9c1,0.2,2.1,0.4,3.1,0.6c-1.9-1.8-3.8-3.5-5.7-5.3C13.5,55.8,14.3,57.4,15.2,58.9"/>
			<path class="st0" d="M19.5,56.6c0,0.3,0,0.6,0,1c1-0.7,0.3,0,1-0.9C20.1,56.6,19.8,56.6,19.5,56.6"/>
			<path class="st0" d="M647.4,54.4c-0.7,0-1.3,0-2,0c0.2,0.3,0.3,0.6,0.5,1C646.4,55.1,646.9,54.7,647.4,54.4"/>
			<path class="st0" d="M10.1,64.1c0-0.5,0-0.9,0-1.4c-0.6-0.2-1.3-0.5-1.9-0.7C9.1,64.1,8.2,63.2,10.1,64.1"/>
			<path class="st0" d="M7.9,69c1-0.7,0.3,0,1-0.9c-0.3,0-0.7,0-1,0C7.9,68.3,7.9,68.7,7.9,69"/>
			<path class="st0" d="M12.8,69.5c-0.7,0-1.3,0-2,0c0.7,0.2,1.3,0.4,2,0.6C12.8,69.8,12.8,69.6,12.8,69.5"/>
			<path class="st0" d="M15.7,71.4c0-0.7,0-1.3,0.1-2c-0.3,0-0.6,0-1,0C15.1,70.1,15.4,70.7,15.7,71.4"/>
			<path class="st0" d="M42.3,83.8c0.9-0.6,0.3-0.5,0.5-1C42.7,83.2,42.5,83.5,42.3,83.8"/>
			<path class="st0" d="M8.1,83c-0.7,0-1.3,0-2,0c0.5,0.3,1.1,0.7,1.6,1C7.8,83.7,7.9,83.3,8.1,83"/>
			<path class="st0" d="M9,87.1c-0.2,0.2-0.5,0.4-0.7,0.6c-0.7,2.3-0.6,5.4-0.9,7.7c0,0.2,0,0.4,0,0.6c1-0.2,2.1-0.4,3.1-0.6
				c0.4-1,0.7-2,1.1-3C11.5,88.5,10.8,88,9,87.1"/>
			<path class="st0" d="M19.2,90.6c-0.2,0.4-0.4,0.9-0.5,1.3c0.3,0.2,0.7,0.5,1,0.7c0.3-0.2,0.7-0.4,1-0.7
				C20.1,91.5,19.6,91.1,19.2,90.6"/>
			<path class="st0" d="M33.7,91.4c0.3,0.7,0.6,1.4,0.9,2C34,91.4,34.6,92.6,33.7,91.4"/>
			<path class="st0" d="M628.7,87.6c-0.3,0-0.7,0-1,0c-0.3,0.2-0.7,0.4-1,0.6C628.1,88.6,627.5,88.4,628.7,87.6"/>
			<path class="st0" d="M617.7,87.9c0.7,1,0,0.3,0.9,1.1C618.3,88.6,618,88.3,617.7,87.9"/>
			<path class="st0" d="M8.4,97.1c1-0.7,0.3,0,1-0.9c-0.3,0-0.7,0-1,0C8.4,96.4,8.4,96.7,8.4,97.1"/>
			<path class="st0" d="M0.6,103.4c-0.2,0-0.4,0-0.6,0c1.3,2.1,1.8,1.2,3.5,0.6c0.1-2.1,0.5-5.1,2.7-5.5c-0.8-1.3-2.7-1.6-4.1-1.8
				C1.3,99.2,1.8,100.3,0.6,103.4"/>
			<g transform="translate(0 119)">
				<defs>
					<filter id="Adobe_OpacityMaskFilter" filterUnits="userSpaceOnUse" x="-1.7" y="-21.4" width="2.5" height="1.7">
						<feColorMatrix  type="matrix" values="1 0 0 0 0  0 1 0 0 0  0 0 1 0 0  0 0 0 1 0"/>
					</filter>
				</defs>
				<mask maskUnits="userSpaceOnUse" x="-1.7" y="-21.4" width="2.5" height="1.7" id="d_1_">
					<g class="st1">
						<polygon id="b_1_" class="st2" points="-1.7,-21.4 0.8,-21.3 0.7,-19.6 -1.8,-19.8 						"/>
					</g>
				</mask>
				<path class="st3" d="M0.7-19.7c0-0.2,0-0.4,0-0.6c-0.6-1-0.6-0.9-1.8-1.1c-0.2,0.2-0.4,0.4-0.6,0.6c0.7,0.4,1.4,0.8,2.1,1.1
					C0.5-19.7,0.6-19.7,0.7-19.7"/>
			</g>
			<path class="st0" d="M10.8,98.2c-0.5,1.7-0.4,2.4-0.7,5c0.7-0.4,1.4-0.9,2.1-1.3C11.8,98.9,11.8,99.4,10.8,98.2"/>
			<path class="st0" d="M615.3,94.6c0.2,0.4,0.4,0.8,0.6,1.2c0.7-0.2,1.4-0.4,2.1-0.6c0.1-0.4,0.2-0.8,0.3-1.2c-0.4,0-0.8,0-1.2,0
				C616.5,94.2,615.9,94.4,615.3,94.6"/>
			<path class="st0" d="M21.6,111.8c0.1,0,0.2,0,0.3,0c0.2-0.6,0.5-1.3,0.7-1.9c-0.3,0-0.7,0-1,0C21.7,110.5,21.7,111.1,21.6,111.8"
				/>
			<path class="st0" d="M38.8,109.7c-0.6,1.3-0.1,0.7-1.2,1.2c0.5,0.6,1.1,1.2,1.6,1.8c0.1,0,0.2,0,0.3,0
				C39.2,110.7,39.5,110.8,38.8,109.7"/>
			<path class="st0" d="M25.8,113.6c0.2,0,0.4,0,0.7,0c0-0.2,0-0.4,0-0.6c-0.7,0-1.3,0-2,0C25.2,113.8,24.9,114.3,25.8,113.6"/>
			<path class="st0" d="M45.3,118c0.4,0.4,0.7,0.7,1.1,1.1c0.3-0.2,0.6-0.4,0.9-0.5C46.6,118.4,46,118.2,45.3,118"/>
			<path class="st0" d="M48.2,120.2c0,0.3,0,0.6,0,1c1-0.7,0.3,0,1-0.9C48.9,120.2,48.5,120.2,48.2,120.2"/>
			<g transform="translate(46 146)">
				<defs>
					<filter id="Adobe_OpacityMaskFilter_1_" filterUnits="userSpaceOnUse" x="-2.9" y="-18.4" width="144" height="14.1">
						<feColorMatrix  type="matrix" values="1 0 0 0 0  0 1 0 0 0  0 0 1 0 0  0 0 0 1 0"/>
					</filter>
				</defs>
				<mask maskUnits="userSpaceOnUse" x="-2.9" y="-18.4" width="144" height="14.1" id="c_1_">
					<g class="st4">
						<polygon id="a_1_" class="st2" points="-2.8,-19 141.5,-11.5 141,-2.5 -3.2,-10.1 						"/>
					</g>
				</mask>
				<path class="st5" d="M106.6-9.9c9.3,0.5,18.6,1,27.9,1.5c0.5-0.4,0.9-0.8,1.4-1.2c-2.8-0.4-5.6-0.7-8.4-1.1
					c-12.1-3.4-24.1-0.1-36.6-1.5c-11.6-1.3-23.3-2.5-34.9-3.8c-15.4,3.2-43.8,2.8-58.8-2.5c0,0.6,0,1.2,0,1.7
					c3.1,1.6,5.4,2.1,9.3,2.8C6-13.2,5.6-12.6,5.1-12C17-8.1,34.4-7.2,46.4-10.6C68.8-9,91.2-7.5,113.6-5.9c8.8,0.5,17.7,1,26.5,1.5
					c0.3-0.2,0.7-0.4,1-0.6c0-0.2,0-0.4,0-0.6c-9.9-3.3-22.1-1.3-34.5-3.8C106.6-9.5,106.6-9.7,106.6-9.9"/>
			</g>
			<path class="st0" d="M43.2,129.9c0.2,0,0.3,0,0.5,0c0-0.3,0-0.7,0-1c-0.7,0-1.3,0-2,0C42.2,129.2,42.7,129.6,43.2,129.9"/>
			<path class="st0" d="M382.2,129.7c1-0.7,0.3,0,1-0.9c-0.3,0-0.7,0-1,0C382.2,129,382.2,129.3,382.2,129.7"/>
			<path class="st0" d="M386.8,128.8c1,0.6,0.6,0.4,1.5-0.8c-1.3,0-2.7,0.1-4,0.1C385,130.7,385,129.9,386.8,128.8"/>
			<path class="st0" d="M395.2,128.3c-0.3,0-0.7,0-1,0c0,0.3,0,0.6,0,1c0.3-0.2,0.7-0.3,1-0.5C395.2,128.7,395.2,128.5,395.2,128.3"
				/>
			<path class="st0" d="M442.2,129.9c0.1,0.3,0.2,0.6,0.3,1c0.2-0.3,0.5-0.6,0.7-1C442.9,129.9,442.6,129.9,442.2,129.9"/>
			<path class="st0" d="M358,132.1c1.7,0.2,3.3,0.4,5,0.5c-1.1-0.4-2.2-0.8-3.3-1.1C359.1,131.7,358.5,131.9,358,132.1"/>
			<path class="st0" d="M177.2,132.9c-0.2,0.4-0.4,0.9-0.5,1.3c0.3,0.2,0.7,0.5,1,0.7c0.3-0.2,0.7-0.4,1-0.7
				C178.1,133.8,177.6,133.4,177.2,132.9"/>
			<path class="st0" d="M222.2,137.6c0.1-0.4,0.2-0.9,0.4-1.3c-7.3-0.3-14.6-0.7-21.9-1c-5.1,0.3-10.1,0.6-15.2,0.8
				C187.9,139.4,218.7,137,222.2,137.6"/>
			<path class="st0" d="M229.6,135.7c-0.3,0-0.7,0-1,0c-0.7,0.2-1.3,0.3-2,0.5c1,0.2,2,0.3,3,0.5l0-0.5
				C229.6,136,229.6,135.8,229.6,135.7"/>
			<path class="st0" d="M229.6,135.7c0.5,1.2,0.7,1,1.9,1.1C230.9,136.4,230.3,136,229.6,135.7"/>
			<path class="st0" d="M236.6,136c-1.3,0-2.7,0-4,0c0.8,1,2,1,3.7,0.9C236.4,136.6,236.5,136.3,236.6,136"/>
			<path class="st0" d="M239.6,135.8c-0.7-0.2-1.3-0.5-2-0.7c0.6,1.3,0.7,1.3,1.5,2.1C239.3,136.7,239.5,136.3,239.6,135.8"/>
			<path class="st0" d="M251.6,136.3c-4-0.4-8-0.7-11.9-1.1c2,3.7,9.2,1.8,11.9,1.7C251.6,136.7,251.6,136.5,251.6,136.3"/>
			<path class="st0" d="M334.8,135.8c1,0.2,2,0.3,3,0.5c-0.2-0.3-0.4-0.7-0.6-1C336.4,135.5,335.6,135.7,334.8,135.8"/>
			<path class="st0" d="M342.1,135c0.2,0,0.5,0,0.7,0c0-0.1,0-0.3,0-0.4c-0.9,0-1.8,0-2.8,0C339,136.1,341.7,135.2,342.1,135"/>
			<path class="st0" d="M276.5,138.4c-7.6-0.8-15.3-1.6-22.9-2.4C253.4,138.8,271.4,138.9,276.5,138.4"/>
			<path class="st0" d="M329.7,136.1c-1.7-0.1-3.3-0.1-5-0.2c1.2,0.2,2.5,0.4,3.6,0.8C328.8,136.5,329.3,136.3,329.7,136.1"/>
			<path class="st0" d="M320.8,135.5c-1.5-0.1-2.9-0.1-4.4-0.2c-9.2,0.5-18.5,0.9-27.7,1.4C295.1,142.7,309.4,136,320.8,135.5"/>
			<path class="st0" d="M320.7,136c1.3,0,2.7,0.1,4,0.1C323.5,136,322.1,135.9,320.7,136"/>
			<path class="st0" d="M332.8,135.7c-0.7-0.2-1.3-0.4-2-0.5C331.3,136.2,331.5,135.8,332.8,135.7"/>
			<path class="st0" d="M361.8,135.6c0.3,0.4,0.6,0.7,0.9,1.1C362.2,135.6,362.8,136.3,361.8,135.6"/>
			<path class="st0" d="M365.8,136.8c0-0.2,0-0.4,0-0.6c-0.7-0.2-1.3-0.4-2-0.5C364.5,136.6,364.4,136.6,365.8,136.8"/>
			<path class="st0" d="M367.8,135.7c0-0.2,0-0.4,0-0.6c-0.7,0-1.3,0-2,0C366.5,135.3,367.2,135.5,367.8,135.7"/>
			<path class="st0" d="M369.8,135.6c0,0.1,0,0.3,0,0.4c0.7,0,1.3,0,2,0c0-0.3,0-0.6,0-0.9c-0.3,0-0.7,0-1,0
				C370.5,135.3,370.2,135.4,369.8,135.6"/>
			<path class="st0" d="M377.8,136.4c-0.9-1.1-0.9-0.6-1.9-1.1C376.6,136.5,376.2,136.1,377.8,136.4"/>
			<path class="st0" d="M378.8,136.5c0.3,0,0.7,0,1,0c-0.2-0.3-0.4-0.7-0.6-1C379,135.8,378.9,136.2,378.8,136.5"/>
			<path class="st0" d="M389.2,135.7c0.2,0,0.4,0,0.7,0c0-0.2,0-0.4,0-0.6c-0.7,0-1.3,0-2,0C388.6,136.4,388.2,135.9,389.2,135.7"/>
			<path class="st0" d="M407.8,137.4c-4.3-0.7-8.6-1.4-12.9-2.1C397.8,138.5,403.6,137.6,407.8,137.4"/>
			<path class="st0" d="M285.6,136.7c0.3,0.3,0.7,0.7,1,1c0.3-0.3,0.7-0.6,1-0.9C287,136.7,286.3,136.7,285.6,136.7"/>
			<path class="st0" d="M437.9,136.5c0-0.2,0-0.3,0-0.5c0-0.2,0-0.3,0-0.5c-0.3,0-0.6,0-0.9,0C436.7,137.1,436.8,136.3,437.9,136.5"
				/>
			<path class="st0" d="M447.2,137c0.2-0.3,0.5-0.6,0.7-0.9c-2,0-4,0-6-0.1C443,137.4,446,136.8,447.2,137"/>
			<path class="st0" d="M450.6,137.3c0.1-0.3,0.2-0.7,0.3-1c-0.7,0-1.3,0-2,0C449.4,137.3,449.8,136.9,450.6,137.3"/>
			<path class="st0" d="M463.9,136.3c0-0.1,0-0.3,0-0.4c-4-0.2-8-0.4-12-0.5C454,137.3,460.3,136.2,463.9,136.3"/>
			<path class="st0" d="M468,135.6c-1-0.2-2-0.4-3-0.6c0.5,1.3,1.1,1.5,1.9,2.1C467.3,136.6,467.6,136.1,468,135.6"/>
			<path class="st0" d="M475.9,137.5c0-0.1,0-0.3,0-0.4c0-0.1,0-0.3,0-0.4c-2.3-0.2-4.6-0.3-7-0.5
				C470.1,137.8,473.6,137.2,475.9,137.5"/>
			<path class="st0" d="M279.9,138.6c0.2,0,0.4,0,0.7,0c-1.7-0.2-3.3-0.4-5-0.5C276.5,139.2,278.5,139.7,279.9,138.6"/>
			<path class="st0" d="M407.9,136c0,0.5,0,1,0,1.4c0.6,0.2,1.3,0.4,1.9,0.7C409.2,135.5,409.5,136.3,407.9,136"/>
			<path class="st0" d="M423.8,137.8c1-0.6,0.4,0,1.1-0.9c-0.2,0-0.5,0-0.7,0C424,137.2,423.9,137.5,423.8,137.8"/>
			<path class="st0" d="M427.8,138.1c-0.8-0.9-0.5-0.7-1.9-1.1C426.6,138.1,426.2,137.7,427.8,138.1"/>
			<path class="st0" d="M429.2,136.8c0.2,0,0.4,0,0.7,0c0-0.2,0-0.4,0-0.6c-0.7,0-1.3,0-2,0C428.6,137.5,428.2,137,429.2,136.8"/>
			<path class="st0" d="M475.9,136.6c0.8,1.1,0.4,0.8,1.9,1.1C477.1,136.8,477.3,136.9,475.9,136.6"/>
			<path class="st0" d="M523,137c0-0.2,0-0.3,0-0.5c0-0.2,0-0.3,0-0.5c-0.5,0-1,0-1.6,0C520.5,137.5,521.1,136.7,523,137"/>
			<path class="st0" d="M524,136.1c0,0.3,0,0.6,0,1c0.3-0.2,0.7-0.3,1-0.5c0-0.2,0-0.3,0-0.5C524.7,136.1,524.3,136.1,524,136.1"/>
			<path class="st0" d="M205.7,138.9c-0.1,0.3-0.2,0.7-0.4,1c7.5,3.8,17.7,1.2,26,1C229.7,139,210.1,138.8,205.7,138.9"/>
			<path class="st0" d="M414.3,138.4c0.2-0.3,0.3-0.6,0.5-1c-0.7,0-1.3,0-2,0C413.3,137.7,413.8,138,414.3,138.4"/>
			<path class="st0" d="M419.5,138.6c0.1-0.3,0.2-0.6,0.3-1c-0.7,0-1.3,0-2,0C418.3,138.7,418.4,138.6,419.5,138.6"/>
			<path class="st0" d="M420.8,137.7c0.3-0.3,0.7-0.6,1-0.9c-0.7,0-1.3,0-2,0C420.2,137,420.5,137.4,420.8,137.7"/>
			<path class="st0" d="M478.9,136.7c1.9,1.1,3.9,2.2,5.8,3.3C483.8,137.6,480.8,137,478.9,136.7"/>
			<path class="st0" d="M536,136.7c0,0.3,0,0.6,0,1c1-0.7,0.3,0,1-0.9C536.7,136.8,536.3,136.8,536,136.7"/>
			<path class="st0" d="M187.3,140.4c1.1,2,3.3,0.9,4.2,0.6c1.2,0.4,0.8,0.5,1.8-0.7c-0.6-0.2-1.2-0.4-1.8-0.6
				C190.2,139.9,188.7,140.2,187.3,140.4"/>
			<path class="st0" d="M199.3,141.1c0.7-0.1,1.4-0.3,2-0.4c0-0.2,0-0.3,0-0.5c-0.5,0-1,0-1.5,0
				C199.6,140.5,199.5,140.8,199.3,141.1"/>
			<path class="st0" d="M268,143.2c0.1-0.4,0.3-0.9,0.4-1.3c-12.3-0.7-24.6-1.4-36.9-2.1C233.3,143.6,262.5,142.5,268,143.2"/>
			<path class="st0" d="M316.6,138.4c-5,0.5-10,1-15.1,1.6c2.3,4,14.6-0.1,19-0.3C319.6,138.1,318.4,138.3,316.6,138.4"/>
			<path class="st0" d="M331.6,139.7c-3-0.4-6-0.7-8.9-1.1C322,140.1,329.7,139.8,331.6,139.7"/>
			<path class="st0" d="M194.8,141.6c0.3,0,0.6,0,0.9,0c0.2,0,0.4,0,0.6,0c-0.7-0.2-1.3-0.4-2-0.5
				C194.5,141.3,194.7,141.4,194.8,141.6"/>
			<path class="st0" d="M391.6,140.2c0.7,0,1.3,0,2,0c0-0.2,0-0.3,0-0.5c-0.7-0.2-1.3-0.3-2-0.5L391.6,140.2L391.6,140.2z"/>
			<path class="st0" d="M400.2,141.6c0.1-0.4,0.3-0.8,0.4-1.1c-2-0.4-3.9-0.8-5.9-1.1C394.1,140.7,398.9,141,400.2,141.6"/>
			<path class="st0" d="M277.4,141.5c0,0.2,0,0.4,0,0.7c8-0.4,16.1-0.7,24.1-1.1c0-0.2,0-0.4,0-0.7c-4.2-0.1-8.3-0.3-12.5-0.4
				C285.1,140.5,281.2,141,277.4,141.5"/>
			<path class="st0" d="M363.6,140.7c0.3,0,0.6,0,1,0c-0.3-0.3-0.6-0.7-0.9-1C363.6,140,363.6,140.4,363.6,140.7"/>
			<path class="st0" d="M366.6,139.9c0.2,0.3,0.4,0.7,0.6,1c0.1,0,0.2,0,0.3,0C367,139.8,367.6,140.5,366.6,139.9"/>
			<path class="st0" d="M444.7,139.9c0.3,0,0.7,0,1,0c-0.2-0.3-0.4-0.7-0.6-1C444.9,139.3,444.8,139.6,444.7,139.9"/>
			<path class="st0" d="M464.7,140c0-0.2,0-0.4,0-0.5c-0.7-0.2-1.3-0.4-2-0.6C463.5,140,463.1,139.7,464.7,140"/>
			<path class="st0" d="M466.9,139.1c-0.8,1.6,2.6,1,4.9,0.9C470.1,139.7,468.5,139.4,466.9,139.1"/>
			<path class="st0" d="M485.8,139.1c6.6,8.5,22.9,2.3,31.5,3.8c0.1-0.2,0.2-0.4,0.3-0.6c-6,0-12,0.1-18,0.1
				C495.1,141.3,490.4,140.2,485.8,139.1"/>
			<path class="st0" d="M406.5,141.8c-1.6-0.7-3.3-1.4-4.9-2.1C402.5,141.9,404.4,142,406.5,141.8"/>
			<path class="st0" d="M443.7,140.7c0-0.2,0-0.4,0-0.6c-0.7,0-1.3,0-2,0C442.3,140.3,443,140.5,443.7,140.7"/>
			<path class="st0" d="M471.7,140.4c0.7,0,1.3,0,2,0c-0.4-0.3-0.9-0.6-1.3-1C472.2,139.7,471.9,140,471.7,140.4"/>
			<path class="st0" d="M269.4,141.8c0.3,0.4,0.6,0.7,0.9,1.1C269.6,141.8,270.3,142.5,269.4,141.8"/>
			<path class="st0" d="M275.3,142.9c0-0.2,0-0.4,0-0.5c-1.3-0.2-2.6-0.3-4-0.5C272.1,143.1,273.6,143.1,275.3,142.9"/>
			<path class="st0" d="M417.6,141.5c0.7,0,1.3,0,2,0c0-0.2,0-0.3,0-0.5c-0.7-0.2-1.3-0.3-2-0.5L417.6,141.5L417.6,141.5z"/>
			<path class="st0" d="M410.5,142c0-0.2,0-0.4,0-0.5c-1-0.2-2-0.3-3-0.5C408.2,142.2,409.1,142.2,410.5,142"/>
			<path class="st0" d="M412.6,142.3c1-0.7,0.3,0,1-0.9c-0.3,0-0.7,0-1,0L412.6,142.3z"/>
			<path class="st0" d="M476.7,140.7c0.7,1.3,2.6,1.9,3.9,2.2c0-0.2,0-0.4,0-0.5C479.7,140.9,478.6,140.6,476.7,140.7"/>
			<path class="st0" d="M642.5,141.3c0.5-0.2,1-0.4,1.5-0.7c-0.6-0.5-1.3-0.9-1.9-1.4C642.2,139.9,642.3,140.6,642.5,141.3"/>
			<path class="st0" d="M525.7,143.2c0.3-0.2,0.7-0.3,1-0.5c-3-0.3-6-0.6-9-1C518.9,143.4,523.2,142.4,525.7,143.2"/>
			<path class="st0" d="M529.2,143.4c0.2-0.3,0.3-0.7,0.5-1c-0.7,0-1.3,0-2,0C528.2,142.7,528.7,143,529.2,143.4"/>
			<path class="st0" d="M503.5,146c0-0.2,0-0.4,0-0.6c-7.6-0.9-15.3-1.8-22.9-2.7C486.2,147.7,495.6,146.3,503.5,146"/>
			<path class="st0" d="M534.7,142.7l0.3,1c0.2-0.3,0.5-0.6,0.7-1C535.3,142.7,535,142.7,534.7,142.7"/>
			<path class="st0" d="M537.6,143.8c0-0.2,0-0.4,0-0.6c-0.7-0.2-1.3-0.4-2-0.5C536.3,143.6,536.3,143.6,537.6,143.8"/>
			<path class="st0" d="M541.1,144c0.2-0.2,0.4-0.4,0.6-0.6c-0.7-0.2-1.3-0.3-2-0.5C540.1,143.3,540.6,143.6,541.1,144"/>
			<path class="st0" d="M544.6,144.2c0.3-0.2,0.7-0.3,1-0.5c0-0.2,0-0.3,0-0.5c-0.3,0-0.7,0-1,0
				C544.7,143.5,544.6,143.9,544.6,144.2"/>
			<path class="st0" d="M550.6,143.9c-1.3-0.2-2.6-0.4-4-0.6c1.3,0.4,2.6,0.8,3.9,1.2C550.6,144.3,550.6,144.1,550.6,143.9"/>
			<path class="st0" d="M553.6,144.5c-0.6-0.3-1.2-0.6-1.8-0.9C551.1,145,552.6,144.5,553.6,144.5"/>
			<path class="st0" d="M504.5,145.1c1,1.8,3.1,0.9,5,0.6c-0.7-0.5-1.3-1-1.9-1.5C506.5,144.5,505.5,144.8,504.5,145.1"/>
			<path class="st0" d="M512.5,145.3c-0.6-0.3-1.2-0.6-1.8-0.8C510.1,145.9,511,145.3,512.5,145.3"/>
			<path class="st0" d="M517.5,145.6c0-0.2,0-0.3,0-0.5c-1.7-0.2-3.3-0.4-5-0.5C513.5,145.8,515.5,145.7,517.5,145.6"/>
			<path class="st0" d="M528.4,147.1c0-0.2,0-0.4,0-0.6c-3.3-0.6-6.6-1.1-9.9-1.7C519.9,147.6,525.4,147.1,528.4,147.1"/>
			<path class="st0" d="M558.6,144.9c1.8,0.4,3.5,0.9,5.3,1.3c0.2-0.1,0.5-0.3,0.7-0.4C562.6,145.5,560.6,145.2,558.6,144.9"/>
			<path class="st0" d="M528.5,146.3c1-0.7,0.3,0,1-0.9c-0.3,0-0.7,0-1,0C528.5,145.7,528.5,146,528.5,146.3"/>
			<path class="st0" d="M539.4,147.5c-3-0.7-5.9-1.4-8.9-2C531.8,148.3,536.8,147.8,539.4,147.5"/>
			<path class="st0" d="M545.4,148.1c0-0.2,0-0.4,0-0.5c-1.3-0.2-2.6-0.3-4-0.5C542.2,148.3,543.7,148.2,545.4,148.1"/>
			<path class="st0" d="M569.2,147.5c0.8,0,1.5,0,2.3,0c0-0.2,0-0.3,0-0.5c-1-0.2-2-0.3-3-0.5C568.7,146.8,568.9,147.1,569.2,147.5"
				/>
			<path class="st0" d="M551.4,148.3c0-0.2,0-0.4,0-0.6c-0.7,0-1.3,0-2,0C550.1,147.9,550.7,148.1,551.4,148.3"/>
			<path class="st0" d="M552.4,148.6c1-0.7,0.3,0,1-0.9c-0.3,0-0.7,0-1,0L552.4,148.6z"/>
			<path class="st0" d="M555.4,148.7c0-0.2,0-0.4,0-0.5c-0.7-0.2-1.3-0.4-2-0.6C554.4,148.8,553.6,148.2,555.4,148.7"/>
			<path class="st0" d="M566.3,151.3c0-0.2,0-0.3,0-0.5c-3-0.7-5.9-1.3-8.9-2C558.7,150.8,563.9,151.1,566.3,151.3"/>
		</g>
	</g>
</g>
</svg>
