<?xml version="1.0" encoding="UTF-8" standalone="no"?>
<svg
   xmlns:dc="http://purl.org/dc/elements/1.1/"
   xmlns:cc="http://creativecommons.org/ns#"
   xmlns:rdf="http://www.w3.org/1999/02/22-rdf-syntax-ns#"
   xmlns:svg="http://www.w3.org/2000/svg"
   xmlns="http://www.w3.org/2000/svg"
   xmlns:sodipodi="http://sodipodi.sourceforge.net/DTD/sodipodi-0.dtd"
   xmlns:inkscape="http://www.inkscape.org/namespaces/inkscape"
   viewBox="0 0 64 64"
   id="svg2"
   version="1.1"
   inkscape:version="0.92.3 (2405546, 2018-03-11)"
   sodipodi:docname="module-calendars_pro.svg">
  <metadata
     id="metadata16">
    <rdf:RDF>
      <cc:Work
         rdf:about="">
        <dc:format>image/svg+xml</dc:format>
        <dc:type
           rdf:resource="http://purl.org/dc/dcmitype/StillImage" />
        <dc:title>module-info</dc:title>
      </cc:Work>
    </rdf:RDF>
  </metadata>
  <defs
     id="defs14" />
  <sodipodi:namedview
     pagecolor="#ffffff"
     bordercolor="#666666"
     borderopacity="1"
     objecttolerance="10"
     gridtolerance="10"
     guidetolerance="10"
     inkscape:pageopacity="0"
     inkscape:pageshadow="2"
     inkscape:window-width="1920"
     inkscape:window-height="1135"
     id="namedview12"
     showgrid="false"
     inkscape:zoom="3.6875"
     inkscape:cx="-27.730799"
     inkscape:cy="32"
     inkscape:window-x="1920"
     inkscape:window-y="0"
     inkscape:window-maximized="1"
     inkscape:current-layer="svg2" />
  <title
     id="title4">module-info</title>
  <g
     id="g6"
     style="fill:#ff6600;fill-opacity:1"
     fill-rule="evenodd"
     fill="none">
    <path
       d="M0 0h64v64H0z"
       id="path8"
       style="fill:#ff6600;fill-opacity:1"
       fill="#6DAAE0" />
  </g>
  <g
     id="g69"
     transform="matrix(1.8022599,0,0,1.8022599,-95.324019,34.644068)"
     style="fill:#ffffff">
    <path
       inkscape:connector-curvature="0"
       id="path129"
       d="M 12,2 C 17.514,2 22,6.486 22,12 22,17.514 17.514,22 12,22 6.486,22 2,17.514 2,12 2,6.486 6.486,2 12,2 Z M 12,0 C 5.373,0 0,5.373 0,12 0,18.627 5.373,24 12,24 18.627,24 24,18.627 24,12 24,5.373 18.627,0 12,0 Z m 1.25,17 c 0,0.69 -0.559,1.25 -1.25,1.25 -0.689,0 -1.25,-0.56 -1.25,-1.25 0,-0.69 0.561,-1.25 1.25,-1.25 0.691,0 1.25,0.56 1.25,1.25 z M 14.643,7.002 C 14.035,6.386 13.128,6.047 12.092,6.047 c -2.18,0 -3.59,1.55 -3.59,3.95 h 2.011 c 0,-1.486 0.829,-2.013 1.538,-2.013 0.634,0 1.307,0.421 1.364,1.226 0.062,0.847 -0.39,1.277 -0.962,1.821 -1.412,1.343 -1.438,1.993 -1.432,3.468 h 2.005 c -0.013,-0.664 0.03,-1.203 0.935,-2.178 0.677,-0.73 1.519,-1.638 1.536,-3.022 C 15.508,8.375 15.213,7.58 14.643,7.002 Z"
       style="fill:#ffffff" />
  </g>
  <path
     id="path11"
     d="m 41.689266,7.5875702 c 0,-1.0821696 -0.80561,-1.9604516 -1.80226,-1.9604516 -0.99665,0 -1.80226,0.878282 -1.80226,1.9604516 v 3.9209038 c 0,1.082169 0.80561,1.960452 1.80226,1.960452 0.99665,0 1.80226,-0.878283 1.80226,-1.960452 z M 20.062147,11.508474 c 0,1.082169 -0.80561,1.960452 -1.80226,1.960452 -0.99665,0 -1.80226,-0.878283 -1.80226,-1.960452 V 7.5875702 c 0,-1.0821696 0.80561,-1.9604516 1.80226,-1.9604516 0.99665,0 1.80226,0.878282 1.80226,1.9604516 z m 23.429379,9.80226 v 19.60452 H 14.655367 V 21.310734 Z M 47.096045,9.5480222 h -3.604519 v 1.9604518 c 0,2.162378 -1.616627,3.920904 -3.60452,3.920904 -1.987893,0 -3.60452,-1.758526 -3.60452,-3.920904 V 9.5480222 H 21.864407 v 1.9604518 c 0,2.162378 -1.616627,3.920904 -3.60452,3.920904 -1.987893,0 -3.60452,-1.758526 -3.60452,-3.920904 V 9.5480222 h -3.60452 V 44.836158 H 47.096045 Z M 26.106927,36.99435 c -2.375379,0 -3.950554,-1.491904 -3.9073,-4.322797 h 2.243814 c 0.03965,1.254689 0.504633,2.17022 1.63465,2.17022 0.747938,0 1.49948,-0.484231 1.49948,-1.566401 0,-1.372316 -0.874096,-1.472299 -2.342938,-1.472299 v -1.915362 c 1.032695,0.09802 2.155503,-0.06273 2.155503,-1.191955 0,-0.892005 -0.665034,-1.299779 -1.281407,-1.299779 -1.036299,0 -1.429192,0.82731 -1.409367,1.966333 h -2.263639 c 0.09372,-2.746593 1.625639,-4.130672 3.656786,-4.130672 1.744587,0 3.548649,1.201757 3.548649,3.215141 0,1.04296 -0.421728,1.852627 -1.149841,2.248638 0.951593,0.397972 1.526514,1.335068 1.526514,2.534865 -0.0018,2.354503 -1.789644,3.764068 -3.910904,3.764068 z m 9.840339,0 h -2.353752 v -7.347774 h -2.546593 v -2.013385 c 1.616627,0.04705 2.748446,-0.456785 2.986345,-2.181983 h 1.914 z M 54.305085,15.429378 V 52.677965 H 14.655367 V 48.757062 H 50.700565 V 15.429378 Z"
     inkscape:connector-curvature="0"
     style="fill:#ffffff;stroke-width:1.87969255" />
</svg>
