<?xml version="1.0" encoding="UTF-8"?>
<svg xmlns="http://www.w3.org/2000/svg" width="72.983" height="72.983" viewBox="0 0 72.983 72.983">
  <g id="Group_220" data-name="Group 220" transform="translate(-1180.009 -584)">
    <path id="Path_37" data-name="Path 37" d="M115.484,92.679h0a2.627,2.627,0,0,1-2.017-.917L99.622,76.726a2.726,2.726,0,0,1,4.034-3.667l11.919,12.928L148.583,53.07a2.659,2.659,0,0,1,3.851,0,2.739,2.739,0,0,1,0,3.851L117.409,91.854A2.5,2.5,0,0,1,115.484,92.679Z" transform="translate(1098.449 540.924)" fill="#1681fb"></path>
    <path id="Path_38" data-name="Path 38" d="M36.492,72.983A36.492,36.492,0,1,1,36.492,0a2.7,2.7,0,0,1,2.751,2.751A2.7,2.7,0,0,1,36.492,5.5a30.99,30.99,0,1,0,30.99,30.99,2.751,2.751,0,1,1,5.5,0A36.587,36.587,0,0,1,36.492,72.983Z" transform="translate(1180.009 584)" fill="#0b3f7a"></path>
  </g>
</svg>
