<?xml version="1.0" encoding="UTF-8"?>
<svg xmlns="http://www.w3.org/2000/svg" id="Ebene_1" viewBox="0 0 2550 430.12">
  <defs>
    <style>.cls-1{fill:#fff;}</style>
  </defs>
  <path class="cls-1" d="M0,320.93H69.2V6.83H0V320.93H0Zm398.33-97.41L173.91,6.83h-48.25V320.93h65.55V105.61l223.51,215.32h49.16V6.83h-65.56V223.51h0Zm122.05,97.41h68.74V192.1h206.67v-54.63h-206.67V61.91h210.32V6.83h-279.05V320.93h0ZM1028.46,0c-123.83,0-188.01,31.87-188.01,164.33s58.27,163.43,188.01,163.43,187.99-36.42,187.99-163.43S1152.73,0,1028.46,0h0Zm0,272.22c-80.58,0-118.35-15.02-118.35-107.88s37.77-108.79,118.35-108.79,118.81,12.29,118.81,108.79-38.25,107.88-118.81,107.88h0Zm512.19-48.7L1316.21,6.83h-48.25V320.93h65.56V105.61l223.51,215.32h49.16V6.83h-65.54V223.51h0Zm122.06,97.41h69.18V6.83h-69.18V320.93h0ZM2390.67,6.83h-59.64l-160.68,314.1h73.29l25.94-54.17h177.99l25.48,54.17h76.94L2390.67,6.83h0Zm-97.43,210.77l66.48-139.3,65.1,139.3h-131.58ZM1970.89,0c-123.81,0-188.01,31.87-188.01,164.33,0,38.46,5.45,68.5,16.5,91.85,4.71,9.97,10.45,18.76,17.29,26.38l3.77,3.79,143,143.77h88.31l-105.41-102.87c7.89,.33,16.04,.51,24.54,.51,129.74,0,188.01-36.42,188.01-163.43S2095.16,0,1970.89,0h0Zm0,272.22c-80.56,0-118.33-15.02-118.33-107.88s37.77-108.79,118.33-108.79,118.83,12.29,118.83,108.79-38.25,107.88-118.83,107.88h0Z"></path>
</svg>
