<?xml version="1.0" encoding="UTF-8"?>
<svg xmlns="http://www.w3.org/2000/svg" id="Ebene_1" data-name="Ebene 1" viewBox="0 0 2550 430.12">
  <defs>
    <style>.cls-1{fill:#0b3f7a;}</style>
  </defs>
  <path class="cls-1" d="M165.12,940.51h69.19V626.41H165.12v314.1Zm398.33-97.42L339,626.41H290.77v314.1h65.56V725.19L579.84,940.51H629V626.41H563.45V843.09Zm122,97.42h68.74V811.68H960.9V757.05H754.24V681.49H964.55V626.41h-279v314.1Zm508.08-320.93c-123.83,0-188,31.87-188,164.33,0,127,58.27,163.43,188,163.43s188-36.42,188-163.43c0-132.46-63.72-164.33-188-164.33Zm0,272.21c-80.58,0-118.35-15-118.35-107.88,0-96.5,37.77-108.79,118.35-108.79,80.12,0,118.81,12.29,118.81,108.79,0,92.87-38.25,107.88-118.81,107.88Zm512.18-48.7L1481.33,626.41h-48.25v314.1h65.56V725.19l223.51,215.32h49.16V626.41h-65.55V843.09Zm122.06,97.42H1897V626.41h-69.18v314.1Zm728-314.1h-59.63l-160.68,314.1h73.29l25.94-54.18h178l25.48,54.18h76.95l-159.34-314.1Zm-97.42,210.77,66.48-139.3,65.1,139.3ZM2136,619.58c-123.82,0-188,31.87-188,164.33,0,38.46,5.44,68.5,16.5,91.85a108.31,108.31,0,0,0,17.29,26.37l3.78,3.8,143,143.77h88.32L2111.46,946.83c7.89.33,16.05.51,24.55.51,129.73,0,188-36.42,188-163.43,0-132.46-63.73-164.33-188-164.33Zm0,272.21c-80.57,0-118.34-15-118.34-107.88,0-96.5,37.77-108.79,118.34-108.79,80.11,0,118.83,12.29,118.83,108.79,0,92.87-38.25,107.88-118.83,107.88Z" transform="translate(-165.12 -619.58)"></path>
</svg>
