<?xml version="1.0" encoding="UTF-8"?>
<svg xmlns="http://www.w3.org/2000/svg" xmlns:xlink="http://www.w3.org/1999/xlink" xmlns:svgjs="http://svgjs.com/svgjs" version="1.1" width="512" height="512" x="0" y="0" viewBox="0 0 512 512" style="enable-background:new 0 0 512 512" xml:space="preserve" class="">
  <circle r="256" cx="256" cy="256" fill="#0b3f7a" shape="circle"></circle>
  <g transform="matrix(0.7,0,0,0.7,76.80000000000001,76.80000000000001)">
    <g xmlns="http://www.w3.org/2000/svg" id="XMLID_491_">
      <g id="XMLID_138_">
        <path id="XMLID_141_" d="m454 116.083h-64v-38.083c0-31.981-26.019-58-58-58h-152c-31.981 0-58 26.019-58 58v38.083h-64c-31.981 0-58 26.019-58 58v259.917c0 31.981 26.019 58 58 58h396c31.981 0 58-26.019 58-58v-259.917c0-31.981-26.019-58-58-58zm-274-76.083h152c17.492 0 32.253 11.884 36.655 28h-225.31c4.402-16.116 19.163-28 36.655-28zm-160 134.083c0-20.953 17.047-38 38-38h153.127c5.522 0 10-4.477 10-10s-4.478-10-10-10h-69.127v-28.083h228v28.083h-68.873c-5.523 0-10 4.478-10 10s4.477 10 10 10h152.873c20.953 0 38 17.047 38 38v31.89c0 47.267-38.455 85.722-85.723 85.722h-102.15v-21.258c0-12.555-10.215-22.769-22.77-22.769h-50.461c-12.555 0-22.77 10.215-22.77 22.769v21.258h-102.403c-47.268-.001-85.723-38.456-85.723-85.722zm208.127 137.611h56v14.306c0 15.44-12.561 28-28 28-15.44 0-28-12.56-28-28zm0-20v-21.258c0-1.527 1.242-2.77 2.77-2.77h50.461c1.527 0 2.77 1.242 2.77 2.77v21.258zm263.873 142.306c0 20.953-17.047 38-38 38h-396c-20.953 0-38-17.047-38-38v-166.225c19.221 26.585 50.483 43.919 85.723 43.919h102.404v14.306c0 26.468 21.532 48 48 48s48-21.532 48-48v-14.306h102.15c35.239 0 66.502-17.334 85.723-43.919z" fill="#ffffff" data-original="#000000" style="" class=""></path>
        <path id="XMLID_148_" d="m256.13 136.08c2.63 0 5.21-1.061 7.07-2.931 1.859-1.859 2.93-4.439 2.93-7.069s-1.07-5.21-2.93-7.07-4.44-2.93-7.07-2.93-5.21 1.069-7.08 2.93c-1.86 1.86-2.92 4.44-2.92 7.07s1.06 5.21 2.92 7.069c1.87 1.871 4.45 2.931 7.08 2.931z" fill="#ffffff" data-original="#000000" style="" class=""></path>
      </g>
    </g>
  </g>
</svg>
