<?xml version="1.0" encoding="UTF-8"?>
<svg xmlns="http://www.w3.org/2000/svg" xmlns:xlink="http://www.w3.org/1999/xlink" xmlns:svgjs="http://svgjs.com/svgjs" version="1.1" width="512" height="512" x="0" y="0" viewBox="0 0 512.001 512.001" style="enable-background:new 0 0 512 512" xml:space="preserve" class="">
  <circle r="256.0005" cx="256.0005" cy="256.0005" fill="#064678" shape="circle"></circle>
  <g transform="matrix(0.7,0,0,0.7,76.80000000000001,76.80000000000001)">
<g xmlns="http://www.w3.org/2000/svg">
	<g>
		<path d="M114.114,73.971c-39.764,0-72.115,32.35-72.115,72.115c0,5.523,4.477,10,10,10s10-4.477,10-10    c0-28.736,23.379-52.115,52.115-52.115s52.115,23.379,52.115,52.115c0,5.523,4.477,10,10,10s10-4.477,10-10    C186.229,106.321,153.878,73.971,114.114,73.971z" fill="#ffffff" data-original="#000000" style="" class=""></path>
	</g>
</g>
<g xmlns="http://www.w3.org/2000/svg">
	<g>
		<path d="M153.224,38.853c-5.191-1.895-10.929,0.779-12.822,5.967c-1.892,5.189,0.779,10.929,5.968,12.822    c36.999,13.498,61.857,49.041,61.857,88.444c0,5.523,4.477,10,10,10s10-4.477,10-10C228.227,98.313,198.086,55.22,153.224,38.853z    " fill="#ffffff" data-original="#000000" style="" class=""></path>
	</g>
</g>
<g xmlns="http://www.w3.org/2000/svg">
	<g>
		<path d="M114.309,31.972h-0.195c-5.523,0-10,4.477-10,10s4.477,10,10,10h0.195c5.523,0,10-4.477,10-10    S119.831,31.972,114.309,31.972z" fill="#ffffff" data-original="#000000" style="" class=""></path>
	</g>
</g>
<g xmlns="http://www.w3.org/2000/svg">
	<g>
		<path d="M87.813,44.824c-1.893-5.188-7.635-7.859-12.822-5.966C30.137,55.227,0,98.318,0,146.086c0,5.523,4.477,10,10,10    s10-4.477,10-10c0-39.399,24.854-74.94,61.848-88.44C87.035,55.752,89.706,50.012,87.813,44.824z" fill="#ffffff" data-original="#000000" style="" class=""></path>
	</g>
</g>
<g xmlns="http://www.w3.org/2000/svg">
	<g>
		<path d="M510.451,104.543c-3.58-20.233-13.177-38.633-27.753-53.21c-18.887-18.886-43.999-29.289-70.709-29.289    s-51.823,10.402-70.709,29.289c-38.988,38.989-38.988,102.428,0.001,141.418c14.514,14.515,32.831,24.096,52.968,27.71    c5.93,1.064,11.893,1.592,17.828,1.592c13.753,0,27.366-2.836,40.101-8.421c5.058-2.218,7.36-8.117,5.142-13.174    c-2.217-5.058-8.115-7.358-13.174-5.142c-30.411,13.338-65.237,6.78-88.725-16.707c-31.191-31.191-31.191-81.944,0-113.134    c31.191-31.191,81.944-31.191,113.134,0c23.249,23.249,29.9,59.051,16.549,89.087c-2.244,5.047,0.029,10.957,5.076,13.2    c5.047,2.244,10.957-0.029,13.2-5.076C511.502,144.413,513.947,124.308,510.451,104.543z" fill="#ffffff" data-original="#000000" style="" class=""></path>
	</g>
</g>
<g xmlns="http://www.w3.org/2000/svg">
	<g>
		<path d="M482.717,178.632l-0.058-0.058c-3.922-3.889-10.224-3.833-14.113,0.088s-3.833,10.282,0.088,14.171    c1.95,1.934,4.496,2.899,7.041,2.899c2.573,0,5.146-0.987,7.101-2.958C486.665,188.853,486.638,182.521,482.717,178.632z" fill="#ffffff" data-original="#000000" style="" class=""></path>
	</g>
</g>
<g xmlns="http://www.w3.org/2000/svg">
	<g>
		<path d="M421.953,113.037V85.244c4.32,2.661,7.149,6.984,7.149,11.869c0,5.523,4.477,10,10,10s10-4.477,10-10    c0-15.87-11.509-29.271-27.148-33.353v-1.535c0-5.523-4.477-10-10-10s-10,4.477-10,10v1.535    c-15.641,4.083-27.148,17.484-27.148,33.353c0,15.87,11.509,29.27,27.148,33.353v27.792c-4.321-2.661-7.149-6.983-7.149-11.868    c0-5.523-4.477-10-10-10s-10,4.477-10,10c0,15.87,11.509,29.27,27.148,33.353v2.478c0,5.523,4.477,10,10,10s10-4.477,10-10v-2.478    c15.641-4.083,27.148-17.484,27.148-33.353C449.101,130.52,437.592,117.119,421.953,113.037z M401.952,108.98    c-4.321-2.66-7.149-6.983-7.149-11.868c0-4.885,2.828-9.208,7.149-11.869V108.98z M421.953,158.258v-23.736    c4.32,2.661,7.149,6.984,7.149,11.869C429.101,151.275,426.273,155.598,421.953,158.258z" fill="#ffffff" data-original="#000000" style="" class=""></path>
	</g>
</g>
<g xmlns="http://www.w3.org/2000/svg">
	<g>
		<path d="M501.985,469.96H271.337l10.032-31.989c7.336-23.392,11.056-47.685,11.056-72.201V263.531    c0-18.771-15.272-34.044-34.044-34.044c-9.415,0-17.948,3.843-24.117,10.041c-6.157-6.113-14.631-9.898-23.972-9.898    c-9.378,0-17.881,3.812-24.044,9.966c-6.163-6.155-14.668-9.966-24.044-9.966c-5.007,0-9.76,1.095-14.045,3.044v-86.588    c0-18.772-15.272-34.044-34.044-34.044S80.07,127.313,80.07,146.085v142.96l-34.798,51.012    c-11.652,17.079-13.435,39.318-4.653,58.035l33.715,71.866H10c-5.523,0-10,4.477-10,10c0,5.523,4.477,10,10,10h491.986    c5.523,0,10-4.477,10-10C511.985,474.434,507.508,469.96,501.985,469.96z M250.376,469.96H96.423l-37.7-80.36    c-5.791-12.344-4.615-27.008,3.068-38.271l18.277-26.793v19.384c0,5.523,4.477,10,10,10s10-4.477,10-10V146.086    c0-7.745,6.301-14.045,14.045-14.045s14.045,6.301,14.045,14.045V310.74c0,5.523,4.477,10,10,10s10-4.477,10-10v-47.067    c0-7.745,6.3-14.045,14.045-14.045s14.045,6.3,14.045,14.045v8.595v38.471c0,5.523,4.477,10,10,10s10-4.477,10-10v-38.471v-8.595    c0-7.745,6.3-14.045,14.045-14.045c7.745,0,14.045,6.3,14.045,14.045v11.393v35.674c0,5.523,4.477,10,10,10s10-4.477,10-10    v-35.674v-11.393v-0.143c0-7.745,6.301-14.045,14.045-14.045s14.045,6.3,14.045,14.045V365.77c0,22.484-3.412,44.764-10.14,66.217    L250.376,469.96z" fill="#ffffff" data-original="#000000" style="" class=""></path>
	</g>
</g>
<g xmlns="http://www.w3.org/2000/svg">
	<g>
		<path d="M290.991,112.041h-41.999c-5.523,0-10,4.477-10,10s4.477,10,10,10h41.999c5.523,0,10-4.477,10-10    S296.514,112.041,290.991,112.041z" fill="#ffffff" data-original="#000000" style="" class=""></path>
	</g>
</g>
<g xmlns="http://www.w3.org/2000/svg">
	<g>
		<path d="M300.424,71.971h-30.932c-5.523,0-10,4.477-10,10s4.477,10,10,10h30.932c5.523,0,10-4.477,10-10    S305.947,71.971,300.424,71.971z" fill="#ffffff" data-original="#000000" style="" class=""></path>
	</g>
</g>
<g xmlns="http://www.w3.org/2000/svg">
	<g>
		<path d="M300.424,150.969h-30.932c-5.523,0-10,4.477-10,10s4.477,10,10,10h30.932c5.523,0,10-4.477,10-10    S305.947,150.969,300.424,150.969z" fill="#ffffff" data-original="#000000" style="" class=""></path>
	</g>
</g>
<g xmlns="http://www.w3.org/2000/svg">
</g>
<g xmlns="http://www.w3.org/2000/svg">
</g>
<g xmlns="http://www.w3.org/2000/svg">
</g>
<g xmlns="http://www.w3.org/2000/svg">
</g>
<g xmlns="http://www.w3.org/2000/svg">
</g>
<g xmlns="http://www.w3.org/2000/svg">
</g>
<g xmlns="http://www.w3.org/2000/svg">
</g>
<g xmlns="http://www.w3.org/2000/svg">
</g>
<g xmlns="http://www.w3.org/2000/svg">
</g>
<g xmlns="http://www.w3.org/2000/svg">
</g>
<g xmlns="http://www.w3.org/2000/svg">
</g>
<g xmlns="http://www.w3.org/2000/svg">
</g>
<g xmlns="http://www.w3.org/2000/svg">
</g>
<g xmlns="http://www.w3.org/2000/svg">
</g>
<g xmlns="http://www.w3.org/2000/svg">
</g>
</g>
</svg>
