<?xml version="1.0" encoding="UTF-8"?>
<svg xmlns="http://www.w3.org/2000/svg" xmlns:xlink="http://www.w3.org/1999/xlink" xmlns:svgjs="http://svgjs.com/svgjs" version="1.1" width="512" height="512" x="0" y="0" viewBox="0 0 512 512" style="enable-background:new 0 0 512 512" xml:space="preserve" class="">
  <circle r="256" cx="256" cy="256" fill="#064678" shape="circle"></circle>
  <g transform="matrix(0.7,0,0,0.7,76.80000000000001,76.7994140625)">
    <g xmlns="http://www.w3.org/2000/svg">
      <g>
        <path d="m487.797 394.146c15.849-26.933 24.203-57.573 24.203-88.903 0-97.832-80.747-177.423-179.999-177.423-25.911 0-50.557 5.434-72.838 15.192-7.33-63.876-62.455-113.679-129.163-113.679-71.682 0-130 57.502-130 128.182 0 22.224 5.818 43.968 16.865 63.17-3.085 11.322-6.17 22.646-9.256 33.992-1.812 6.697.053 13.623 4.99 18.525 4.926 4.893 12.126 6.79 18.811 4.961 11.5-3.035 22.999-6.073 34.498-9.111 19.483 10.902 41.547 16.644 64.093 16.644 7.868 0 15.672-.707 23.341-2.078-.878 7.09-1.339 14.305-1.339 21.625 0 31.073 8.268 61.647 23.911 88.418 2.787 4.768 8.911 6.375 13.679 3.589 4.769-2.787 6.375-8.911 3.589-13.679-13.855-23.712-21.179-50.798-21.179-78.329 0-86.804 71.775-157.423 160-157.423 88.224 0 159.999 70.62 159.999 157.423 0 29.063-8.115 57.456-23.467 82.108-1.472 2.362-1.892 5.23-1.16 7.915 4.898 17.978 9.794 35.954 14.688 53.936.285 1.056.026 1.992-.77 2.783-.419.416-1.572 1.33-3.258.862-.042-.012-.084-.023-.126-.034-18.202-4.804-36.402-9.613-54.603-14.422-2.617-.692-5.407-.292-7.725 1.108-25.091 15.155-53.992 23.166-83.579 23.166-27.646 0-54.9-7.055-78.814-20.401-4.823-2.693-10.915-.964-13.605 3.858-2.692 4.823-.964 10.914 3.858 13.605 26.886 15.005 57.51 22.937 88.561 22.937 31.79 0 62.889-8.242 90.223-23.874 16.842 4.45 33.683 8.9 50.526 13.345 8.041 2.208 16.706-.074 22.635-5.961 5.917-5.876 8.152-14.175 5.978-22.212-4.523-16.612-9.045-33.214-13.567-49.815zm-330.456-131.833c-8.892 2.236-18.061 3.384-27.342 3.384-20.349 0-40.224-5.508-57.476-15.929-2.319-1.401-5.104-1.802-7.725-1.109l-3.061.809c-11.486 3.035-22.973 6.07-34.461 9.102 3.334-12.253 6.668-24.494 10.004-36.736.731-2.685.311-5.553-1.16-7.915-10.545-16.935-16.12-36.44-16.12-56.404 0-59.651 49.346-108.182 110-108.182 59.071 0 107.408 46.031 109.892 103.534-40.56 23.912-70.822 63.1-82.551 109.446z" fill="#ffffff" data-original="#000000" style="" class=""></path>
        <path d="m329.421 409.274c.845.226 1.713.338 2.58.338s1.735-.113 2.58-.339c27.456-7.333 90.148-58.585 103.749-109.424 6.439-24.069 1.174-45.433-15.227-61.781-23.441-23.367-61.587-23.369-85.03 0-3.987 3.974-9.127 3.008-12.146 0-23.442-23.37-61.588-23.369-85.03 0-16.401 16.348-21.666 37.712-15.227 61.782 13.602 50.839 76.294 102.09 103.751 109.424zm-74.403-157.042c7.828-7.804 18.112-11.706 28.396-11.706s20.566 3.902 28.396 11.706c11.321 11.285 29.061 11.288 40.384 0 15.658-15.608 41.134-15.607 56.792 0 11.358 11.322 14.638 25.207 10.024 42.448-11.409 42.65-64.596 86.221-87.008 94.444-22.412-8.223-75.599-51.793-87.009-94.444-4.614-17.24-1.334-31.125 10.025-42.448z" fill="#ffffff" data-original="#000000" style="" class=""></path>
        <path d="m173.333 127.515h-13.333v-13.333c0-9.19-7.477-16.667-16.667-16.667h-26.667c-9.19 0-16.667 7.477-16.667 16.667v13.333h-13.333c-9.19 0-16.667 7.477-16.667 16.667v26.667c0 9.19 7.477 16.667 16.667 16.667h13.334v13.333c0 9.19 7.477 16.667 16.667 16.667h26.667c9.19 0 16.667-7.477 16.667-16.667v-13.333h13.333c9.19 0 16.667-7.477 16.667-16.667v-26.667c-.001-9.191-7.478-16.667-16.668-16.667zm-3.333 40.001h-20c-5.523 0-10 4.477-10 10v20h-20v-20c0-5.523-4.477-10-10-10h-20v-20.001h20c5.523 0 10-4.477 10-10v-20h20v20c0 5.523 4.477 10 10 10h20z" fill="#ffffff" data-original="#000000" style="" class=""></path>
        <path d="m212.252 414.08h-.007c-5.523 0-9.996 4.477-9.996 10s4.48 10 10.003 10 10-4.477 10-10-4.477-10-10-10z" fill="#ffffff" data-original="#000000" style="" class=""></path>
      </g>
    </g>
  </g>
</svg>
